# xmcd
#
# Track frame offsets:
#	150
#	2232
#	17180
#	36696
#	37657
#	45684
#	46441
#	73219
#	74385
#	79330
#	81924
#	92957
#	93519
#	98504
#	107271
#	117006
#	126885
#	128046
#	144173
#	145704
#	163678
#	164651
#	169525
#	176625
#	187646
#	190221
#	195390
#	204089
#	216368
#	217458
#	229093
#	234977
#	239612
#	240412
#	244816
#	248006
#	257745
#
# Disc length: 3485 seconds
#
# Revision: 1
# Processed by: cddbd v1.5.2PL0 Copyright (c) Steve Scherf et al.
# Submitted via: audiograbber 1.83.01
#
DISCID=050d9b25
DTITLE=Gerhard Polt - Die Klassiker
DYEAR=1997
DGENRE=Comedy
TTITLE0=Ouvertüre
TTITLE1=Der Erwin
TTITLE2=Mai Ling
TTITLE3=Der Sittich
TTITLE4=Servus Oma
TTITLE5=Die Kulturreise
TTITLE6=Die Bunkerführung
TTITLE7=Chinas Chinesen
TTITLE8=Der Willi
TTITLE9=Der Nurejew
TTITLE10=Der Schubidu
TTITLE11=Mozart
TTITLE12=heut geh ich in*s Büro
TTITLE13=Mahlzeit
TTITLE14=Nikolausi
TTITLE15='s Lawinderl
TTITLE16=Englisch
TTITLE17=Der Hundebesitzer
TTITLE18=Die Dicke
TTITLE19=Im Buchladen
TTITLE20=Frau Mittermeier
TTITLE21=Der Kaiserschmarrn
TTITLE22=Der Weihnachtsneger
TTITLE23=Der Softbiß
TTITLE24=Das Abitur
TTITLE25=Wo ist Vogi?
TTITLE26=Ein Airportgespräch
TTITLE27=PS-Rock
TTITLE28=Kindererziehung
TTITLE29=Folterkammerführung
TTITLE30=Net vui
TTITLE31=Der Suizig
TTITLE32=Dr. Keßler
TTITLE33=Eine Entdeckung
TTITLE34=Karnevalisten
TTITLE35=Der neue Schnitt
TTITLE36=Finale
EXTD=
EXTT0=
EXTT1=
EXTT2=
EXTT3=
EXTT4=
EXTT5=
EXTT6=
EXTT7=
EXTT8=
EXTT9=
EXTT10=
EXTT11=
EXTT12=
EXTT13=
EXTT14=
EXTT15=
EXTT16=
EXTT17=
EXTT18=
EXTT19=
EXTT20=
EXTT21=
EXTT22=
EXTT23=
EXTT24=
EXTT25=
EXTT26=
EXTT27=
EXTT28=
EXTT29=
EXTT30=
EXTT31=
EXTT32=
EXTT33=
EXTT34=
EXTT35=
EXTT36=
PLAYORDER=
